PathFileType	4	(X/Y/Z)	C:/Users/opensim2020/Desktop/walking_exp_matlab/subject03_walking10_straight_03.trc																																																																																																																																					
DataRate	CameraRate	NumFrames	NumMarkers	Units	OrigDataRate	OrigDataStartFrame	OrigNumFrames																																																																																																																																	
100	100	5	45	mm	100	2790	417																																																																																																																																	
Frame#	Time	LFHD			RFHD			LBHD			RBHD			C7			T10			CLAV			STRN			RBAK			LSHO			LUPA			LELB			LFRM			LWRA			LWRB			LFIN			RSHO			RUPA			RELB			RFRM			RWRA			RWRB			RFIN			LASI			RASI			LPSI			RPSI			LTHI			LKNE			LTIB			LANK			LHEE			LTOE			RTHI			RKNE			RTIB			RANK			RHEE			RTOE			*39			*40			*41			*42			*43			*44		
		X1	Y1	Z1	X2	Y2	Z2	X3	Y3	Z3	X4	Y4	Z4	X5	Y5	Z5	X6	Y6	Z6	X7	Y7	Z7	X8	Y8	Z8	X9	Y9	Z9	X10	Y10	Z10	X11	Y11	Z11	X12	Y12	Z12	X13	Y13	Z13	X14	Y14	Z14	X15	Y15	Z15	X16	Y16	Z16	X17	Y17	Z17	X18	Y18	Z18	X19	Y19	Z19	X20	Y20	Z20	X21	Y21	Z21	X22	Y22	Z22	X23	Y23	Z23	X24	Y24	Z24	X25	Y25	Z25	X26	Y26	Z26	X27	Y27	Z27	X28	Y28	Z28	X29	Y29	Z29	X30	Y30	Z30	X31	Y31	Z31	X32	Y32	Z32	X33	Y33	Z33	X34	Y34	Z34	X35	Y35	Z35	X36	Y36	Z36	X37	Y37	Z37	X38	Y38	Z38	X39	Y39	Z39	X40	Y40	Z40	X41	Y41	Z41	X42	Y42	Z42	X43	Y43	Z43	X44	Y44	Z44	X45	Y45	Z45
																																																																																																																																								
53	0.52	-896.63318	1619.29956	1359.7948	-899.62933	1626.0863	1492.50854	-1016.92151	1555.24707	1363.61279	-1014.9552	1562.46448	1494.44238	-1030.56531	1412.79736	1414.79395	-1077.53345	1102.60864	1419.53918	-911.36597	1330.93127	1424.60474	-875.76868	1163.7688	1419.18909	-1097.52686	1241.2052	1506.09619	-940.88745	1366.78967	1266.72925	-930.9649	1173.41687	1195.50415	-901.80597	1054.05725	1185.51587	-833.474	946.06366	1204.146	-777.92853	849.29913	1253.66248	-790.63141	840.02887	1199.79614	-743.93762	773.71381	1225.38708	-966.47412	1355.1521	1581.79944	-991.16736	1132.72314	1649.00171	-989.46387	1019.6297	1662.51196	-985.31512	882.32294	1664.28821	-958.91101	784.90625	1632.32983	-996.99719	783.04321	1671.47473	-975.81409	711.92822	1666.90894	-923.55457	929.9693	1299.95349	-915.6156	932.32831	1539.12585	-1082.19336	960.33539	1358.33948	-1077.22144	965.11127	1506.67578	-1024.58032	637.35089	1268.57605	-1061.03577	463.17767	1304.97925	-1166.2428	293.55627	1302.60657	-1242.44653	94.32053	1344.92517	-1292.22766	71.82232	1378.88269	-1103.43213	32.62647	1384.64856	-927.99249	642.04321	1584.85425	-866.05603	472.68542	1546.99915	-863.20386	287.18686	1553.10022	-828.09656	72.95394	1511.28308	-867.63013	40.73116	1458.22485	-683.93616	39.63839	1497.21265	NaN	NaN	NaN	NaN	NaN	NaN	NaN	NaN	NaN	NaN	NaN	NaN	NaN	NaN	NaN	NaN	NaN	NaN
54	0.53	-890.04199	1620.29456	1361.47046	-892.90247	1626.98242	1494.18726	-1010.16156	1555.98157	1365.37781	-1008.20288	1563.21826	1496.22754	-1023.39594	1413.54224	1416.41187	-1069.83899	1103.20532	1420.35559	-904.1665	1331.85498	1426.19312	-868.18542	1164.7262	1420.57727	-1090.29395	1241.68408	1507.54919	-933.8222	1367.54358	1268.04077	-924.96887	1173.72815	1197.28369	-897.2439	1053.69934	1187.67053	-830.89362	944.16223	1206.01428	-777.69934	845.9693	1254.86829	-790.32263	837.31134	1201.2699	-744.92706	770.09259	1226.62585	-959.40521	1355.64233	1583.39502	-983.78027	1133.0249	1650.29858	-981.8717	1019.91577	1663.85742	-977.75592	882.58203	1665.46863	-951.40472	785.16095	1633.49133	-989.44592	783.31891	1672.7168	-968.52277	712.38696	1668.12146	-915.84015	930.10663	1300.88684	-907.75684	933.3269	1540.12036	-1074.41943	960.61469	1358.96301	-1069.46448	966.72626	1507.52246	-1017.79742	637.71924	1269.42444	-1054.9928	463.63516	1305.44739	-1162.28271	295.17697	1302.78247	-1241.14026	96.95051	1344.63953	-1291.00891	75.11408	1378.64856	-1103.2334	32.64181	1384.67603	-920.80792	643.38623	1584.68201	-860.04834	473.40948	1546.66809	-858.05463	287.58041	1553.21643	-827.29364	73.00017	1510.52722	-867.5979	40.59582	1458.00073	-683.55676	39.04659	1494.92456	NaN	NaN	NaN	NaN	NaN	NaN	NaN	NaN	NaN	NaN	NaN	NaN	NaN	NaN	NaN	NaN	NaN	NaN
55	0.54	-883.41229	1621.48975	1363.14441	-886.10822	1628.0022	1495.80798	-1003.47839	1556.94678	1367.07642	-1001.41272	1564.0304	1498.09595	-1015.99268	1414.4989	1418.11035	-1062.10156	1104.02856	1421.28833	-896.98547	1332.94543	1427.66724	-860.54846	1165.89819	1422.01111	-1082.83386	1242.34814	1508.98975	-926.69385	1368.65967	1269.45361	-919.31067	1174.15259	1199.06189	-892.66467	1053.84448	1189.70349	-828.49969	942.63263	1207.68933	-777.49835	842.99792	1256.01831	-790.43091	834.85449	1202.34729	-746.30402	766.77307	1227.32166	-952.05988	1356.44324	1584.9021	-975.82654	1133.69775	1651.65649	-973.91254	1020.59875	1665.18555	-969.71509	883.24084	1666.82629	-943.58691	785.77307	1634.72522	-981.50146	783.94299	1674.06067	-960.73688	712.81213	1669.19067	-907.99512	930.47986	1301.87781	-899.77271	934.85852	1541.14709	-1066.50635	961.26678	1359.71338	-1061.57068	968.35284	1508.29443	-1010.76978	638.2395	1270.20166	-1048.68018	464.30389	1305.74158	-1158.05505	296.99863	1303.0481	-1239.34387	99.83782	1344.42419	-1289.57141	78.98486	1378.4491	-1103.09229	32.58262	1384.72961	-913.7691	644.98645	1584.66235	-853.75592	474.40839	1546.57788	-854.59888	287.95609	1553.18152	-826.95776	73.18243	1510.15662	-867.43835	40.47537	1458.19727	-683.00861	39.00389	1493.41516	-976.35437	1669.29236	1412.90479	NaN	NaN	NaN	NaN	NaN	NaN	NaN	NaN	NaN	NaN	NaN	NaN	NaN	NaN	NaN
56	0.55	-876.73804	1622.78308	1364.80334	-879.44067	1629.28589	1497.47083	-996.73663	1557.96838	1368.77734	-994.48804	1565.03638	1499.771	-1008.79889	1415.40405	1419.58545	-1054.50903	1105.07849	1422.17078	-889.65338	1334.21497	1429.17871	-852.97485	1167.27307	1423.38696	-1075.39185	1243.23389	1510.40076	-919.50861	1370.12744	1270.87085	-913.38733	1175.08569	1200.85596	-888.08832	1054.3374	1191.88342	-826.36554	941.44653	1209.2627	-777.6524	840.25433	1256.80029	-791.03119	832.78821	1203.17432	-748.28052	763.64166	1227.44287	-944.83594	1357.5863	1586.40564	-967.99567	1134.73962	1652.98669	-965.68573	1021.62048	1666.51538	-961.64142	884.24524	1667.99707	-935.5025	786.8031	1635.94995	-973.32758	784.98615	1675.42688	-952.73969	713.80457	1670.42358	-899.37799	931.17627	1303.45117	-891.7854	936.63818	1542.15356	-1058.49988	962.13818	1360.43726	-1053.66614	970.19275	1508.95093	-1003.53345	638.90625	1271.03772	-1041.98584	465.08197	1305.91296	-1153.34167	298.93915	1303.14392	-1237.27917	102.9182	1344.2616	-1287.81677	83.03877	1378.22705	-1102.92444	32.56079	1384.651	-906.79767	646.71301	1585.05981	-848.32837	475.50919	1546.83655	-852.09314	288.48029	1553.4751	-826.93689	73.32448	1510.2301	-867.45459	40.49984	1458.31067	-683.01788	38.90241	1493.45752	-969.68896	1670.40271	1414.68164	NaN	NaN	NaN	NaN	NaN	NaN	NaN	NaN	NaN	NaN	NaN	NaN	NaN	NaN	NaN
57	0.56	-870.11993	1624.21753	1366.48132	-873.08539	1630.67737	1499.53931	-990.11157	1559.27148	1370.53125	-987.55896	1566.20874	1501.3988	-1001.97961	1416.7677	1421.24976	-1046.96069	1106.27649	1422.953	-882.18713	1335.6936	1430.75879	-845.33899	1168.79565	1424.76062	-1068.95068	1244.54517	1511.7677	-912.349	1371.81812	1272.37854	-907.28363	1176.42517	1202.78601	-883.70447	1055.3158	1193.98853	-824.40106	940.60522	1210.65771	-777.95581	837.90936	1257.37	-791.86932	831.05835	1203.66711	-750.72015	760.88367	1227.16284	-937.69391	1358.99255	1587.89868	-961.41992	1136.17615	1654.27844	-957.51398	1023.02032	1667.61658	-953.14679	885.6131	1669.38159	-927.18671	788.16156	1637.2312	-964.901	786.34698	1676.81787	-944.48376	715.09094	1671.65247	-891.30304	932.1142	1304.61035	-883.76379	938.55096	1543.31287	-1050.50879	963.36188	1361.172	-1045.74438	972.12823	1509.62549	-996.04083	639.69098	1271.72949	-1034.44189	465.83984	1306.00769	-1148.22314	300.96271	1303.20825	-1234.91321	106.17929	1343.99829	-1285.82507	87.46882	1378.03931	-1102.74158	32.5121	1384.58411	-899.7926	648.40967	1585.72827	-844.00806	476.48865	1547.52905	-850.32922	288.86185	1554.55066	-827.18774	73.40392	1510.66101	-867.59369	40.53367	1458.70898	-683.32159	38.69519	1493.98865	-963.08411	1671.69031	1416.47253	NaN	NaN	NaN	NaN	NaN	NaN	NaN	NaN	NaN	NaN	NaN	NaN	NaN	NaN	NaN
